# xmcd
#
# Track frame offsets:
#	150
#	12781
#	23798
#	36069
#	49095
#	60640
#	72810
#	85149
#	96916
#	108663
#	119091
#	130961
#	144029
#	154236
#	165737
#	175628
#	187321
#	198550
#	209176
#	220884
#	232342
#	243773
#	253571
#	265612
#	277712
#	288859
#	301198
#	312451
#
# Disc length: 4332 seconds
# Revision: 0
# Processed by: cddbd v1.5.2PL0 Copyright (c) Steve Scherf et al.
# Submitted via: dBpowerAMP V12.0
#
DISCID=9810ea1c
DTITLE=Eddy Arnold - Complete #1 Original Hits
DYEAR=1946
DGENRE=Country
TTITLE0=What Is Life Without Love [original mono]
TTITLE1=It's a Sin [original mono]
TTITLE2=I'll Hold You in My Heart [original mono]
TTITLE3=Anytime [original mono]
TTITLE4=Bouquet of Roses [original mono]
TTITLE5=Texarkana Baby [original mono]
TTITLE6=Just a Little Lovin' [original mono]
TTITLE7=A Heart Full of Love [original mono]
TTITLE8=Don't Rob Another Man's Castle [original mono]
TTITLE9=One Kiss Too Many [original mono]
TTITLE10=I'm Throwing Rice (at the Girl I Love) [original mono]
TTITLE11=Take Me in Your Arms and Hold Me [original mono]
TTITLE12=There's Been a Change in Me [original mono]
TTITLE13=Kentucky Waltz [original mono]
TTITLE14=I Wanna Play House with You [original mono]
TTITLE15=Easy on the Eyes [original mono]
TTITLE16=A Full Time Job [original mono]
TTITLE17=Eddy's Song [original mono]
TTITLE18=I Really Don't Want to Know [original mono]
TTITLE19=The Cattle Call [original mono]
TTITLE20=That Do Make It Nice [original mono]
TTITLE21=What's He Doing in My World
TTITLE22=Make the World Go Away
TTITLE23=I Want to Go with You
TTITLE24=Somebody Like Me
TTITLE25=Lonely Again
TTITLE26=Turn the World Around
TTITLE27=Then You Can Tell Me Goodbye
EXTD=
EXTT0=
EXTT1=
EXTT2=
EXTT3=
EXTT4=
EXTT5=
EXTT6=
EXTT7=
EXTT8=
EXTT9=
EXTT10=
EXTT11=
EXTT12=
EXTT13=
EXTT14=
EXTT15=
EXTT16=
EXTT17=
EXTT18=
EXTT19=
EXTT20=
EXTT21=
EXTT22=
EXTT23=
EXTT24=
EXTT25=
EXTT26=
EXTT27=
PLAYORDER=
